<?xml version="1.0" encoding="UTF-8"?>
<svg width="25px" height="25px" viewBox="0 0 25 25" version="1.1" xmlns="http://www.w3.org/2000/svg" xmlns:xlink="http://www.w3.org/1999/xlink">
    <title>iconography / bag</title>
    <g id="iconography-/-bag" stroke="none" stroke-width="1" fill="none" fill-rule="evenodd">
        <path d="M19.1666667,12.5 L9.16666667,14.1666667 L7.5,7.5 L20,7.5 L19.1666667,12.5 Z M10,18.75 C10,19.4408333 9.44083333,20 8.75,20 C8.05916667,20 7.5,19.4408333 7.5,18.75 C7.5,18.0591667 8.05916667,17.5 8.75,17.5 C9.44083333,17.5 10,18.0591667 10,18.75 Z M20,18.75 C20,19.4408333 19.4408333,20 18.75,20 C18.0591667,20 17.5,19.4408333 17.5,18.75 C17.5,18.0591667 18.0591667,17.5 18.75,17.5 C19.4408333,17.5 20,18.0591667 20,18.75 Z M7.5,7.5 L6.66666667,5 L5,5 M19.1666667,15.8333333 L9.16666667,15.8333333 L9.16666667,14.1666667" id="lineart" stroke="#020203"></path>
    </g>
</svg>