<svg width="24" height="24" viewBox="0 0 24 24" fill="none" xmlns="http://www.w3.org/2000/svg">
<path d="M5.07697 9.45696C5.07697 8.67896 5.21297 7.94396 5.48097 7.25796C5.73702 6.59166 6.11745 5.98013 6.60197 5.45596C7.0855 4.93867 7.63884 4.49136 8.24597 4.12696C8.86888 3.75011 9.54327 3.4658 10.248 3.28296C10.9612 3.09568 11.6956 3.00123 12.433 3.00196C13.572 3.00196 14.632 3.24296 15.615 3.72296C16.5851 4.1942 17.4109 4.9174 18.006 5.81696C18.62 6.73196 18.925 7.76696 18.925 8.92096C18.925 9.61296 18.857 10.29 18.718 10.952C18.5815 11.6136 18.3645 12.256 18.072 12.865C17.7931 13.4544 17.4285 13.9993 16.99 14.482C16.5492 14.9569 16.0155 15.3361 15.422 15.596C14.7776 15.8784 14.0805 16.0205 13.377 16.013C12.888 16.013 12.4 15.898 11.918 15.667C11.436 15.437 11.09 15.121 10.882 14.716C10.809 14.997 10.709 15.403 10.576 15.934C10.448 16.464 10.362 16.806 10.324 16.961C10.284 17.115 10.21 17.372 10.102 17.728C10.0287 17.9913 9.93477 18.2484 9.82097 18.497L9.47697 19.171C9.3282 19.4602 9.16189 19.74 8.97897 20.009C8.79797 20.271 8.57397 20.584 8.30697 20.944L8.15797 20.997L8.05897 20.889C7.95197 19.756 7.89697 19.078 7.89697 18.854C7.89697 18.191 7.97597 17.447 8.13197 16.621C8.28497 15.796 8.52697 14.759 8.85197 13.512C9.17697 12.266 9.36297 11.533 9.41297 11.316C9.18397 10.849 9.06797 10.239 9.06797 9.48896C9.06797 8.88996 9.25497 8.32896 9.62997 7.80096C10.006 7.27496 10.481 7.01196 11.057 7.01196C11.498 7.01196 11.84 7.15796 12.085 7.45096C12.331 7.74296 12.451 8.11096 12.451 8.55996C12.451 9.03596 12.293 9.72496 11.975 10.626C11.657 11.528 11.499 12.201 11.499 12.648C11.499 13.101 11.661 13.48 11.985 13.777C12.3047 14.0741 12.7276 14.2351 13.164 14.226C13.56 14.226 13.927 14.136 14.268 13.955C14.6036 13.7793 14.8942 13.5284 15.117 13.222C15.6022 12.5563 15.9481 11.7995 16.134 10.997C16.23 10.575 16.304 10.174 16.35 9.79696C16.399 9.41796 16.42 9.05996 16.42 8.71996C16.42 7.47296 16.024 6.50096 15.237 5.80496C14.446 5.10896 13.416 4.76296 12.149 4.76296C10.708 4.76296 9.50297 5.22896 8.53797 6.16396C7.57197 7.09596 7.08597 8.28096 7.08597 9.71796C7.08597 10.035 7.13397 10.341 7.22497 10.637C7.31397 10.932 7.41097 11.167 7.51597 11.341C7.61997 11.512 7.71797 11.679 7.80697 11.833C7.89697 11.987 7.94397 12.097 7.94397 12.163C7.94397 12.365 7.89097 12.628 7.78397 12.953C7.67297 13.278 7.54197 13.44 7.38397 13.44C7.36897 13.44 7.30697 13.429 7.19897 13.406C6.82493 13.2943 6.48714 13.0855 6.21997 12.801C5.93641 12.506 5.71262 12.159 5.56097 11.779C5.40975 11.4003 5.29196 11.0091 5.20897 10.61C5.1193 10.2322 5.07499 9.84517 5.07697 9.45696V9.45696Z" fill="white"/>
</svg>
