<svg width="15" height="16" viewBox="0 0 15 16" fill="none" xmlns="http://www.w3.org/2000/svg">
<path opacity="0.42" d="M14.875 1.01758C14.875 0.585938 14.4766 0.1875 14.0449 0.1875H0.796875C0.365234 0.1875 0 0.585938 0 1.01758V14.2656C0 14.6973 0.365234 15.0625 0.796875 15.0625H7.93555V9.31836H5.97656V7.06055H7.93555V5.40039C7.93555 3.50781 9.09766 2.44531 10.8242 2.44531C11.6211 2.44531 12.3516 2.51172 12.5508 2.54492V4.53711H11.3555C10.4258 4.53711 10.2598 5.00195 10.2598 5.63281V7.06055H12.4844L12.1855 9.31836H10.2598V15.0625H14.0449C14.4766 15.0625 14.875 14.6973 14.875 14.2656V1.01758Z" fill="black"/>
</svg>
