<svg width="107" height="23" viewBox="0 0 107 23" fill="none" xmlns="http://www.w3.org/2000/svg">
<path d="M9.62643 23C15.464 23 19.2529 18.3277 19.2529 12.2385C19.2529 6.14941 15.464 1.47706 9.62643 1.47706C3.78883 1.47706 0 6.14941 0 12.2385C0 18.3277 3.78883 23 9.62643 23ZM9.62643 2.86369C13.3872 2.86369 13.8924 6.87287 13.8924 12.2385C13.8924 17.6042 13.3872 21.6134 9.62643 21.6134C5.86567 21.6134 5.36049 17.6042 5.36049 12.2385C5.36049 6.87287 5.86567 2.86369 9.62643 2.86369Z" fill="black"/>
<path d="M18.476 9.58585C19.4302 9.58585 20.3003 9.79685 20.3003 11.2438V17.8755C20.3003 21.5832 21.8719 23 24.033 23C27.5131 23 28.6076 19.654 29.0567 19.654C29.2251 19.654 29.3093 19.7746 29.3093 19.9554V22.6383C29.3093 22.8191 29.3654 23 29.618 23C29.9828 23 32.1719 22.5478 34.3891 22.5478V21.3722C33.07 21.3722 32.6491 20.7995 32.6491 19.443V8.50065C32.6491 8.07864 32.5649 7.95806 32.2281 7.95806C31.8632 7.95806 29.7583 8.31979 26.9518 8.41022V9.58585C27.906 9.58585 28.776 9.79685 28.776 11.2438V15.5242C28.776 18.8702 27.2605 20.8296 25.6888 20.8296C24.5662 20.8296 24.1733 19.7444 24.1733 18.3277V8.50065C24.1733 8.07864 24.0891 7.95806 23.7523 7.95806C23.3875 7.95806 21.2826 8.31979 18.476 8.41022V9.58585Z" fill="black"/>
<path d="M33.1634 9.58585H35.2964V18.9305C35.2964 21.7038 36.391 23 38.6923 23C40.8814 23 42.1444 21.7038 42.9302 19.6239L42.004 19.1717C41.6111 19.8951 41.134 20.8296 40.2359 20.8296C39.7027 20.8296 39.1694 20.5583 39.1694 19.232V9.58585H42.3408V8.41022H39.1694V2.56225H38.131C37.261 5.15465 35.9419 7.7772 33.1634 8.59109V9.58585Z" fill="black"/>
<path d="M41.4616 22.5478H49.1515V21.3722C48.5902 21.3722 47.1589 21.3421 47.1589 19.5334V9.58585H49.8251C51.4529 9.58585 51.8458 10.249 51.8458 11.9069V19.2621C51.8458 20.9502 51.7897 21.3722 50.3864 21.3722V22.5478H57.5711V21.3722C56.3924 21.3722 55.7188 21.3722 55.7188 19.8349V8.28965C55.7188 8.13892 55.6627 7.95806 55.4943 7.95806C55.2136 7.95806 54.5962 8.10878 54.1471 8.16907C52.9123 8.31979 51.8458 8.41022 49.8251 8.41022H47.1589V5.45609C47.1589 2.41153 48.1131 1.0249 50.4706 1.0249C51.6774 1.0249 52.0703 1.2962 52.0703 1.62779C52.0703 2.01966 51.2003 2.17038 51.2003 3.346C51.2003 4.55177 52.1545 5.27523 53.221 5.27523C54.4839 5.27523 55.4662 4.43119 55.4662 3.01442C55.4662 0.964614 53.3332 0 50.3583 0C46.5976 0 44.9698 1.80865 44.212 2.98427C43.2578 4.46134 43.2858 5.9384 43.2858 7.53604V8.41022H41.5177V9.58585H43.2858V19.5334C43.2858 21.3722 42.0229 21.3722 41.4616 21.3722V22.5478Z" fill="black"/>
<path d="M56.1771 9.58585H58.31V18.9305C58.31 21.7038 59.4046 23 61.7059 23C63.8951 23 65.158 21.7038 65.9438 19.6239L65.0177 19.1717C64.6248 19.8951 64.1476 20.8296 63.2495 20.8296C62.7163 20.8296 62.1831 20.5583 62.1831 19.232V9.58585H65.3545V8.41022H62.1831V2.56225H61.1446C60.2746 5.15465 58.9555 7.7772 56.1771 8.59109V9.58585Z" fill="black"/>
<path d="M63.1616 9.58585H65.2946V18.9305C65.2946 21.7038 66.3891 23 68.6905 23C70.8796 23 72.1426 21.7038 72.9284 19.6239L72.0022 19.1717C71.6093 19.8951 71.1322 20.8296 70.2341 20.8296C69.7009 20.8296 69.1676 20.5583 69.1676 19.232V9.58585H72.339V8.41022H69.1676V2.56225H68.1292C67.2592 5.15465 65.9401 7.7772 63.1616 8.59109V9.58585Z" fill="black"/>
<path d="M76.1748 14.1678V13.4142C76.1748 10.46 76.9325 9.13368 78.0832 9.13368C79.3742 9.13368 79.9917 10.5806 79.9917 13.2634V13.8663C79.9917 14.0773 79.9355 14.1678 79.7671 14.1678H76.1748ZM82.9385 18.1468C82.3491 19.6841 81.3388 21.1612 79.3461 21.1612C77.7745 21.1612 76.1748 19.8047 76.1748 15.9161V15.3434H84.1173C84.1173 11.0931 82.0404 7.95806 78.3077 7.95806C74.8838 7.95806 71.8527 11.1232 71.8527 15.4941C71.8527 19.8349 74.8837 23 78.2235 23C81.0862 23 83.3314 21.1913 84.2015 18.1468H82.9385Z" fill="black"/>
<path d="M83.0227 22.5478H92.0878V21.3722C90.2636 21.3722 89.2813 21.3722 89.2813 19.5334V14.9214C89.2813 11.9672 90.3197 10.671 90.7407 10.671C91.1336 10.671 90.8249 12.9017 92.7333 12.9017C94.0244 12.9017 94.6418 11.7864 94.6418 10.5505C94.6418 9.01311 93.884 7.95806 92.4527 7.95806C90.2075 7.95806 89.3374 11.1835 88.9165 11.1835C88.7761 11.1835 88.7761 10.9725 88.7761 10.8519V8.38008C88.7761 8.10878 88.72 7.95806 88.5235 7.95806C88.2148 7.95806 85.1276 8.34993 83.1069 8.41022V9.58585C84.6505 9.58585 85.4083 9.76671 85.4083 11.2438V19.5334C85.4083 21.3722 84.3699 21.3722 83.0227 21.3722V22.5478Z" fill="black"/>
<path d="M97.4016 18.6592C97.4016 15.8558 100.517 15.2529 101.583 15.2529C101.724 15.2529 101.724 15.4338 101.724 16.6094C101.724 19.654 100.657 21.1612 99.0856 21.1612C97.9349 21.1612 97.4016 20.287 97.4016 18.6592ZM105.597 14.2582C105.597 10.1284 103.885 7.95806 99.0294 7.95806C96.3071 7.95806 94.118 9.10354 94.118 11.2739C94.118 12.4495 94.8196 13.5347 96.0264 13.5347C97.4297 13.5347 97.991 12.6003 97.991 11.6055C97.991 10.2189 97.1771 10.4299 97.1771 9.79685C97.1771 9.43512 97.57 9.13368 98.6926 9.13368C100.657 9.13368 101.724 10.038 101.724 12.2988V14.2883C98.8049 14.4391 93.5286 15.2529 93.5286 19.4731C93.5286 21.4626 94.8477 23 97.1771 23C99.5346 23 101.275 21.3421 101.808 20.8899C102.089 21.4024 102.678 23 104.614 23C105.681 23 107 22.4574 107 21.0406C107 20.8598 106.916 20.7392 106.804 20.7392C106.691 20.7392 106.523 20.8296 106.27 20.8296C105.849 20.8296 105.597 20.5885 105.597 19.9554V14.2582Z" fill="black"/>
<path d="M63.1616 9.58585H65.2946V18.9305C65.2946 21.7038 66.3891 23 68.6905 23C70.8796 23 72.1426 21.7038 72.9284 19.6239L72.0022 19.1717C71.6093 19.8952 71.1322 20.8296 70.2341 20.8296C69.7009 20.8296 69.1676 20.5583 69.1676 19.232V9.58585H72.339V8.41023H69.1676V2.56226H68.1292C67.2592 5.15465 65.9401 7.7772 63.1616 8.59109V9.58585Z" fill="#53127C"/>
<path d="M76.1748 14.1678V13.4142C76.1748 10.46 76.9325 9.13368 78.0832 9.13368C79.3742 9.13368 79.9916 10.5806 79.9916 13.2634V13.8663C79.9916 14.0773 79.9355 14.1678 79.7671 14.1678H76.1748ZM82.9385 18.1468C82.3491 19.6841 81.3388 21.1612 79.3461 21.1612C77.7745 21.1612 76.1748 19.8047 76.1748 15.9161V15.3434H84.1173C84.1173 11.0931 82.0404 7.95806 78.3077 7.95806C74.8837 7.95806 71.8527 11.1232 71.8527 15.4941C71.8527 19.8349 74.8837 23 78.2235 23C81.0862 23 83.3314 21.1914 84.2015 18.1468H82.9385Z" fill="#53127C"/>
<path d="M83.0227 22.5478H92.0878V21.3722C90.2636 21.3722 89.2813 21.3722 89.2813 19.5334V14.9214C89.2813 11.9672 90.3197 10.671 90.7407 10.671C91.1336 10.671 90.8249 12.9017 92.7333 12.9017C94.0243 12.9017 94.6418 11.7864 94.6418 10.5505C94.6418 9.01311 93.884 7.95806 92.4527 7.95806C90.2075 7.95806 89.3374 11.1835 88.9164 11.1835C88.7761 11.1835 88.7761 10.9725 88.7761 10.8519V8.38008C88.7761 8.10878 88.72 7.95806 88.5235 7.95806C88.2148 7.95806 85.1276 8.34994 83.1069 8.41023V9.58585C84.6505 9.58585 85.4083 9.76671 85.4083 11.2438V19.5334C85.4083 21.3722 84.3699 21.3722 83.0227 21.3722V22.5478Z" fill="#53127C"/>
<path d="M97.4016 18.6592C97.4016 15.8558 100.517 15.2529 101.583 15.2529C101.724 15.2529 101.724 15.4338 101.724 16.6094C101.724 19.654 100.657 21.1612 99.0856 21.1612C97.9349 21.1612 97.4016 20.287 97.4016 18.6592ZM105.597 14.2582C105.597 10.1284 103.885 7.95806 99.0294 7.95806C96.3071 7.95806 94.118 9.10354 94.118 11.2739C94.118 12.4495 94.8196 13.5347 96.0264 13.5347C97.4297 13.5347 97.991 12.6003 97.991 11.6055C97.991 10.2189 97.1771 10.4299 97.1771 9.79686C97.1771 9.43513 97.57 9.13368 98.6926 9.13368C100.657 9.13368 101.724 10.038 101.724 12.2988V14.2883C98.8049 14.4391 93.5286 15.2529 93.5286 19.4731C93.5286 21.4626 94.8477 23 97.1771 23C99.5346 23 101.275 21.3421 101.808 20.8899C102.089 21.4024 102.678 23 104.614 23C105.681 23 107 22.4574 107 21.0406C107 20.8598 106.916 20.7392 106.804 20.7392C106.691 20.7392 106.523 20.8296 106.27 20.8296C105.849 20.8296 105.597 20.5885 105.597 19.9554V14.2582Z" fill="#53127C"/>
</svg>
