<svg width="32" height="32" viewBox="0 0 32 32" fill="none" xmlns="http://www.w3.org/2000/svg">
<circle cx="15.9184" cy="15.9184" r="15.9184" fill="#1E1E1E"/>
<path d="M24.6735 8.76313C23.9114 9.30076 23.0675 9.71195 22.1744 9.98089C21.695 9.42972 21.0579 9.03907 20.3493 8.86177C19.6407 8.68446 18.8948 8.72906 18.2123 8.98953C17.5299 9.25 16.9439 9.71378 16.5337 10.3181C16.1234 10.9225 15.9086 11.6383 15.9184 12.3686V13.1646C14.5197 13.2008 13.1337 12.8906 11.8839 12.2615C10.6341 11.6325 9.5593 10.7041 8.75517 9.55905C8.75517 9.55905 5.57149 16.7223 12.7348 19.906C11.0956 21.0187 9.1429 21.5766 7.16333 21.4978C14.3266 25.4774 23.0817 21.4978 23.0817 12.3448C23.081 12.1231 23.0596 11.9019 23.018 11.6842C23.8303 10.8831 24.4036 9.87162 24.6735 8.76313V8.76313Z" stroke="white" stroke-width="2" stroke-linecap="round" stroke-linejoin="round"/>
</svg>
